<?xml version="1.0" encoding="utf-8"?>
<svg version="1.1" id="Layer_1" x="0px" y="0px" viewBox="0 0 512 512" style="enable-background:new 0 0 512 512;" xmlns="http://www.w3.org/2000/svg" xmlns:bx="https://boxy-svg.com">
  <circle style="fill: rgb(252, 184, 0);" cx="255.458" cy="263.445" r="239.624"/>
  <circle style="stroke-width: 0px; fill: rgba(216, 216, 216, 0.93); visibility: hidden;" cx="256.556" cy="265.621" r="195.493"/>
  <g id="XMLID_2_" style="" transform="matrix(0.819893, 0, 0, 0.819893, 48.857212, 46.243549)">
    <path id="XMLID_6_" d="M 487.82 274.08 C 487.82 305.78 481.82 336.68 468.92 365.88 C 456.02 395.08 439.72 419.88 418.32 441.38 C 396.92 462.78 372.02 479.08 342.82 491.98 C 313.62 504.88 283.72 510.78 251.12 510.78 C 218.52 510.78 188.52 504.78 159.32 491.88 C 130.12 478.98 105.32 462.68 83.82 441.28 C 62.42 419.88 46.12 394.98 33.22 365.78 C 20.32 336.58 14.32 306.58 14.32 273.98 C 14.32 242.921 26.503 188.336 51.939 155.746 C 56.723 149.617 67.704 142.708 67.704 142.708 C 67.704 142.708 110.163 140.523 155.92 142.454 C 136.22 157.854 120.72 181.28 109.62 203.58 C 98.52 225.88 93.32 249.08 93.32 273.88 C 93.32 295.28 97.62 315.88 106.22 334.78 C 114.82 354.48 125.92 370.78 139.62 385.38 C 153.32 399.08 170.52 411.08 190.22 418.78 C 209.92 426.48 229.72 431.68 251.12 431.68 C 272.52 431.68 293.12 427.38 312.02 418.78 C 330.92 410.18 348.02 399.08 362.62 385.38 C 376.32 371.68 388.32 354.48 396.02 334.78 C 404.62 315.08 408.92 295.28 408.92 273.88 C 408.92 248.98 403.82 225.88 392.62 203.58 C 381.52 181.28 364.664 160.567 344.964 145.167 C 337.09 138.85 444.016 138.844 444.016 138.844 C 444.016 138.844 453.085 155.048 454.882 157.629 C 479.221 192.585 487.82 236.38 487.82 274.08 Z M 291.42 77.541 L 291.42 234.68 C 291.42 244.98 212.62 244.88 212.62 234.68 L 212.62 78.174 C 212.62 67.874 291.42 67.241 291.42 77.541 Z" style="fill: rgb(255, 255, 255);"/>
    <line style="stroke: rgb(0, 0, 0); fill: rgb(255, 255, 255); pointer-events: none; visibility: hidden;" x1="-5.140562248995991" y1="144.96385542168673" x2="527.1179298406785" y2="144.96385542168673"/>
  </g>
  <path d="M 254.405 58.03 L 366.926 138.098 L 141.883 138.098 L 254.405 58.03 Z" style="paint-order: stroke; stroke: rgb(0, 0, 0); fill: rgb(255, 255, 255);" bx:shape="triangle 141.883 58.03 225.043 80.068 0.5 0 1@ce08b0e3"/>
</svg>